<svg width="50" height="50" viewBox="0 0 50 50" fill="none" xmlns="http://www.w3.org/2000/svg">
<path d="M8.3333 41.6667C7.18746 41.6667 6.20621 41.2584 5.38955 40.4417C4.57288 39.625 4.16524 38.6445 4.16663 37.5V12.5C4.16663 11.3542 4.57496 10.373 5.39163 9.55629C6.2083 8.73963 7.18885 8.33199 8.3333 8.33338H41.6666C42.8125 8.33338 43.7937 8.74171 44.6104 9.55838C45.427 10.375 45.8347 11.3556 45.8333 12.5V37.5C45.8333 38.6459 45.425 39.6271 44.6083 40.4438C43.7916 41.2605 42.8111 41.6681 41.6666 41.6667H8.3333ZM41.6666 16.6667L26.0937 26.4063C25.9201 26.5105 25.7375 26.5889 25.5458 26.6417C25.3541 26.6945 25.1722 26.7202 25 26.7188C24.8264 26.7188 24.6437 26.6931 24.452 26.6417C24.2604 26.5903 24.0784 26.5118 23.9062 26.4063L8.3333 16.6667V37.5H41.6666V16.6667ZM25 22.9167L41.6666 12.5H8.3333L25 22.9167ZM8.3333 17.1875V14.1146V14.1667V14.1417V17.1875Z" fill="white"/>
</svg>
