<svg width="50" height="50" viewBox="0 0 50 50" fill="none" xmlns="http://www.w3.org/2000/svg">
<path d="M39.5833 14.5833H37.5V4.16663H12.5V14.5833H10.4166C8.75902 14.5833 7.16931 15.2418 5.99721 16.4139C4.82511 17.586 4.16663 19.1757 4.16663 20.8333V35.4166C4.16663 36.5217 4.60561 37.5815 5.38701 38.3629C6.16842 39.1443 7.22822 39.5833 8.33329 39.5833H12.5V45.8333H37.5V39.5833H41.6666C42.7717 39.5833 43.8315 39.1443 44.6129 38.3629C45.3943 37.5815 45.8333 36.5217 45.8333 35.4166V20.8333C45.8333 19.1757 45.1748 17.586 44.0027 16.4139C42.8306 15.2418 41.2409 14.5833 39.5833 14.5833ZM16.6666 8.33329H33.3333V14.5833H16.6666V8.33329ZM16.6666 41.6666V33.3333H33.3333V41.6666H16.6666ZM39.5833 25H31.25V20.8333H39.5833V25Z" fill="white"/>
</svg>
