<svg width="50" height="50" viewBox="0 0 50 50" fill="none" xmlns="http://www.w3.org/2000/svg">
<path d="M14.8959 43.9583C14.375 43.4374 14.1146 42.8208 14.1146 42.1083C14.1146 41.3958 14.375 40.7798 14.8959 40.2603L30.1563 24.9999L14.8438 9.68742C14.3577 9.20131 14.1146 8.59367 14.1146 7.8645C14.1146 7.13534 14.375 6.51034 14.8959 5.9895C15.4167 5.46867 16.0334 5.20825 16.7459 5.20825C17.4584 5.20825 18.0743 5.46867 18.5938 5.9895L36.0938 23.5416C36.3021 23.7499 36.45 23.9756 36.5375 24.2187C36.625 24.4617 36.6681 24.7221 36.6667 24.9999C36.6667 25.2777 36.623 25.5381 36.5355 25.7812C36.448 26.0242 36.3007 26.2499 36.0938 26.4583L18.5417 44.0103C18.0556 44.4964 17.4563 44.7395 16.7438 44.7395C16.0313 44.7395 15.4153 44.4791 14.8959 43.9583Z" fill="white"/>
</svg>
