<svg width="50" height="50" viewBox="0 0 50 50" fill="none" xmlns="http://www.w3.org/2000/svg">
<path d="M46.7917 12.5C45.1875 13.2292 43.4584 13.7084 41.6667 13.9375C43.5 12.8334 44.9167 11.0834 45.5834 8.97921C43.8542 10.0209 41.9375 10.75 39.9167 11.1667C38.2709 9.37504 35.9584 8.33337 33.3334 8.33337C28.4375 8.33337 24.4375 12.3334 24.4375 17.2709C24.4375 17.9792 24.5209 18.6667 24.6667 19.3125C17.25 18.9375 10.6459 15.375 6.25004 9.97921C5.47921 11.2917 5.04171 12.8334 5.04171 14.4584C5.04171 17.5625 6.60421 20.3125 9.02087 21.875C7.54171 21.875 6.16671 21.4584 4.95837 20.8334V20.8959C4.95837 25.2292 8.04171 28.8542 12.125 29.6667C10.8141 30.0255 9.43774 30.0754 8.10421 29.8125C8.67005 31.5885 9.77824 33.1426 11.273 34.2561C12.7677 35.3697 14.5739 35.9869 16.4375 36.0209C13.2784 38.5218 9.36253 39.8736 5.33337 39.8542C4.62504 39.8542 3.91671 39.8125 3.20837 39.7292C7.16671 42.2709 11.875 43.75 16.9167 43.75C33.3334 43.75 42.3542 30.125 42.3542 18.3125C42.3542 17.9167 42.3542 17.5417 42.3334 17.1459C44.0834 15.8959 45.5834 14.3125 46.7917 12.5Z" fill="#003C71"/>
</svg>
